<svg width="20" height="20" viewBox="0 0 20 20" fill="none" xmlns="http://www.w3.org/2000/svg">
<path d="M15.8196 10.7701L15.7932 10.9811L15.9607 11.112L17.7176 12.486C17.7177 12.486 17.7178 12.4861 17.7178 12.4861C17.724 12.4912 17.7377 12.512 17.7221 12.5429L16.0587 15.4206L16.0586 15.4206L16.0541 15.4287C16.0493 15.4375 16.0436 15.4415 16.0377 15.4436C16.0313 15.4459 16.0227 15.4466 16.0124 15.4427C16.0122 15.4426 16.0119 15.4425 16.0116 15.4424L13.9397 14.6103L13.7439 14.5317L13.575 14.6583C13.161 14.9688 12.722 15.2343 12.2494 15.428L12.0509 15.5094L12.0205 15.7217L11.7038 17.9301L11.7037 17.9301L11.7029 17.9368C11.7026 17.9394 11.7014 17.9436 11.6955 17.9486C11.6895 17.9537 11.6799 17.9583 11.6667 17.9583H8.33332C8.32005 17.9583 8.31046 17.9537 8.30445 17.9486C8.29861 17.9436 8.29742 17.9394 8.29709 17.9368L8.29715 17.9368L8.29619 17.9301L7.97953 15.7217L7.94907 15.5094L7.75053 15.428C7.27535 15.2332 6.8375 14.9756 6.42863 14.6611L6.25892 14.5305L6.06024 14.6103L3.99414 15.4401C3.98517 15.4426 3.97247 15.4428 3.96058 15.4388C3.94946 15.435 3.94682 15.4305 3.94587 15.4287L3.94597 15.4287L3.94132 15.4206L2.27789 12.5429C2.2623 12.512 2.27592 12.4913 2.28215 12.4861C2.28222 12.4861 2.28229 12.486 2.28235 12.486L4.03932 11.112L4.2068 10.9811L4.18043 10.7701C4.14805 10.5111 4.12499 10.2532 4.12499 9.99998C4.12499 9.74675 4.14805 9.48881 4.18043 9.22982L4.2068 9.01887L4.03932 8.88791L2.28235 7.51398C2.28224 7.51389 2.28214 7.5138 2.28203 7.51371C2.27422 7.50742 2.26951 7.4991 2.26786 7.49075C2.26643 7.48352 2.267 7.47563 2.27284 7.46575L2.27285 7.46576L2.27465 7.46264L3.94132 4.57931L3.94142 4.57937L3.94587 4.57121C3.95064 4.56247 3.95633 4.55848 3.96232 4.55634C3.96866 4.55408 3.97722 4.55338 3.98753 4.55722L6.06024 5.38963L6.25612 5.46829L6.42499 5.34164C6.83893 5.03118 7.27799 4.76563 7.75053 4.57196L7.94907 4.4906L7.97953 4.2782L8.29619 2.06987L8.29625 2.06988L8.29709 2.06315C8.29742 2.06051 8.29861 2.05637 8.30445 2.05136C8.31046 2.04621 8.32005 2.04164 8.33332 2.04164H11.6667C11.6799 2.04164 11.6895 2.04621 11.6955 2.05136C11.7014 2.05637 11.7026 2.06051 11.7029 2.06315L11.7028 2.06316L11.7038 2.06987L12.0205 4.2782L12.0509 4.4906L12.2494 4.57196C12.7246 4.76671 13.1625 5.02436 13.5713 5.33888L13.7411 5.46942L13.9397 5.38963L16.0058 4.55987C16.0148 4.55736 16.0275 4.55711 16.0394 4.56117C16.0505 4.56495 16.0532 4.56946 16.0541 4.57121L16.054 4.57127L16.0587 4.57931L17.7221 7.45704C17.7377 7.48801 17.724 7.50872 17.7178 7.51382C17.7178 7.51388 17.7177 7.51393 17.7176 7.51398L15.9607 8.88791L15.7932 9.01887L15.8196 9.22982C15.852 9.48916 15.875 9.73864 15.875 9.99998C15.875 10.2613 15.852 10.5108 15.8196 10.7701ZM6.70832 9.99998C6.70832 11.8154 8.18455 13.2916 9.99999 13.2916C11.8154 13.2916 13.2917 11.8154 13.2917 9.99998C13.2917 8.18454 11.8154 6.70831 9.99999 6.70831C8.18455 6.70831 6.70832 8.18453 6.70832 9.99998Z" stroke="white" stroke-width="0.75"/>
</svg>
