<svg width="18" height="14" viewBox="0 0 18 14" fill="none" xmlns="http://www.w3.org/2000/svg">
<path fill-rule="evenodd" clip-rule="evenodd" d="M17.4751 6.91313C17.4751 4.25912 16.3367 1.83735 14.4632 0L13.6594 0.463627C15.4379 2.16445 16.5227 4.42814 16.5227 6.91313C16.5227 9.48283 15.3627 11.8159 13.4751 13.5346L14.282 14C16.2631 12.1429 17.4751 9.65165 17.4751 6.91313ZM0.475098 4.70833V9.29167H3.50451L7.4751 12.5V1.5L3.50451 4.70833H0.475098ZM12.3625 2C13.6662 3.25012 14.4751 4.99267 14.4751 6.92014C14.4751 8.93114 13.5946 10.7408 12.1903 12L11.4751 11.5377C12.8047 10.4231 13.6473 8.76795 13.6473 6.92014C13.6473 5.15648 12.8797 3.56829 11.6537 2.45816L12.3625 2ZM11.4751 6.91632C11.4751 5.77654 11.0273 4.74502 10.3039 4L9.71457 4.36925C10.3984 4.96656 10.8345 5.87145 10.8345 6.88434C10.8345 8.01097 10.295 9.00397 9.4751 9.58872L10.1314 10C10.9555 9.24625 11.4751 8.1441 11.4751 6.91632Z" fill="#393C4F"/>
</svg>
